<?xml version="1.0" encoding="utf-8"?>
<!-- Generator: Adobe Illustrator 26.1.0, SVG Export Plug-In . SVG Version: 6.00 Build 0)  -->
<svg version="1.1" id="Слой_1" xmlns="http://www.w3.org/2000/svg" xmlns:xlink="http://www.w3.org/1999/xlink" x="0px" y="0px"
	 viewBox="0 0 22 22" style="enable-background:new 0 0 22 22;" xml:space="preserve">
<style type="text/css">
	.st0{fill-rule:evenodd;clip-rule:evenodd;fill:#225FE9;}
	.st1{fill-rule:evenodd;clip-rule:evenodd;fill:none;stroke:#000000;stroke-miterlimit:10;}
</style>
<path class="st0" d="M14.7,16.5h4.2c0.7,0,1.3-0.6,1.3-1.3c0-0.3-0.1-0.7-0.4-0.9l-0.9-0.9c-0.3-0.3-0.5-0.8-0.5-1.3V9.1
	c0-4-3.3-7.3-7.3-7.3c-4,0-7.3,3.3-7.3,7.3l0,2.9c0,0.5-0.2,1-0.6,1.3l-0.9,0.9c-0.3,0.2-0.4,0.6-0.4,0.9c0,0.7,0.6,1.3,1.3,1.3h4.2
	c0,2,1.6,3.7,3.7,3.7C13,20.2,14.7,18.5,14.7,16.5z M17.9,14.3l0.8,0.8H3.3l0.8-0.8c0.6-0.6,1-1.4,1-2.3l0-2.9
	c0-3.3,2.6-5.9,5.9-5.9c3.3,0,5.9,2.7,5.9,5.9v2.9C17,12.9,17.3,13.7,17.9,14.3z M13.3,16.5H8.7c0,1.3,1,2.3,2.3,2.3
	C12.3,18.8,13.3,17.8,13.3,16.5z"/>
<line class="st1" x1="1.8" y1="20.2" x2="20.2" y2="1.8"/>
</svg>
