<svg id="Слой_1" data-name="Слой 1" xmlns="http://www.w3.org/2000/svg" viewBox="0 0 823.07 753.33"><defs><style>.cls-1{fill:#f5f8ff;}</style></defs><path class="cls-1" d="M2.61,531.93l110.75-439A123,123,0,0,1,251.82,1.52l467.4,73.82A123,123,0,0,1,819.33,226.81l-109,433.49a123,123,0,0,1-142,90.9l-85-16a123,123,0,0,1-96.05-152.91L495.11,182.7c5.86-21.74,14.16-40.52,2.08-59.52-13.65-21.48-45.92,24.48-52.62,49l-112,410.27a123,123,0,0,1-140.92,88.59L80.22,650.57A97.92,97.92,0,0,1,2.61,531.93Z"/></svg>